<?xml version="1.0" standalone="no"?>
<!DOCTYPE svg PUBLIC "-//W3C//DTD SVG 20010904//EN"
 "http://www.w3.org/TR/2001/REC-SVG-20010904/DTD/svg10.dtd">
<svg version="1.0" xmlns="http://www.w3.org/2000/svg"
 width="512.000000pt" height="512.000000pt" viewBox="0 0 512.000000 512.000000"
 preserveAspectRatio="xMidYMid meet">
<metadata>
Created by potrace 1.14, written by Peter Selinger 2001-2017
</metadata>
<g transform="translate(0.000000,512.000000) scale(0.100000,-0.100000)"
fill="#000000" stroke="none">
<path d="M245 5111 c-89 -22 -165 -84 -212 -172 l-28 -54 0 -2325 0 -2325 25
-50 c31 -61 97 -126 159 -157 l46 -23 2325 0 2325 0 49 25 c63 31 127 96 157
158 l24 47 0 2325 0 2325 -25 49 c-43 85 -107 140 -194 169 -45 16 -239 17
-2335 16 -1257 -1 -2299 -4 -2316 -8z"/>
</g>
</svg>
